HIERARCHY
ROOT Hips
{
	OFFSET -0.568511 99.152313 -4.068294
	CHANNELS 6 Xposition Yposition Zposition Xrotation Yrotation Zrotation
	JOINT Chest
	{
		OFFSET -3.746004 13.087189 0.920417
		CHANNELS 3 Xrotation Yrotation Zrotation
		JOINT Chest2
		{
			OFFSET -5.489351 20.380188 3.685291
			CHANNELS 3 Xrotation Yrotation Zrotation
			JOINT Chest3
			{
				OFFSET 1.135595 14.841171 -1.127006
				CHANNELS 3 Xrotation Yrotation Zrotation
				JOINT Neck
				{
					OFFSET 1.508287 17.177505 1.128813
					CHANNELS 3 Xrotation Yrotation Zrotation
					JOINT Head
					{
						OFFSET 4.073840 9.329880 2.486934
						CHANNELS 3 Xrotation Yrotation Zrotation
						End Site
						{
							OFFSET 4.075913 9.347580 2.416065
						}
					}
				}
				JOINT LeftCollar
				{
					OFFSET 4.943817 12.624969 4.239483
					CHANNELS 3 Xrotation Yrotation Zrotation
					JOINT LeftUpArm
					{
						OFFSET 15.820113 4.656723 -6.044688
						CHANNELS 3 Xrotation Yrotation Zrotation
						JOINT LeftLowArm
						{
							OFFSET 12.969933 30.056763 8.252257
							CHANNELS 3 Xrotation Yrotation Zrotation
							JOINT LeftHand
							{
								OFFSET -5.984699 29.394562 1.043764
								CHANNELS 3 Xrotation Yrotation Zrotation
								End Site
								{
									OFFSET -1.307981 6.424362 0.228117
								}
							}
						}
					}
				}
				JOINT RightCollar
				{
					OFFSET -3.370589 13.423233 3.203858
					CHANNELS 3 Xrotation Yrotation Zrotation
					JOINT RightUpArm
					{
						OFFSET -8.066526 12.819092 -8.893707
						CHANNELS 3 Xrotation Yrotation Zrotation
						JOINT RightLowArm
						{
							OFFSET 3.654350 32.293671 9.137733
							CHANNELS 3 Xrotation Yrotation Zrotation
							JOINT RightHand
							{
								OFFSET 20.740631 21.209137 4.577445
								CHANNELS 3 Xrotation Yrotation Zrotation
								End Site
								{
									OFFSET 4.533051 4.635498 1.000441
								}
							}
						}
					}
				}
			}
		}
	}
	JOINT LeftUpLeg
	{
		OFFSET 9.139713 2.380318 3.349458
		CHANNELS 3 Xrotation Yrotation Zrotation
		JOINT LeftLowLeg
		{
			OFFSET 0.516441 -43.559372 18.609264
			CHANNELS 3 Xrotation Yrotation Zrotation
			JOINT LeftFoot
			{
				OFFSET -4.809868 -42.895737 -11.721325
				CHANNELS 3 Xrotation Yrotation Zrotation
				JOINT LeftToe
				{
					OFFSET -15.579019 -17.323727 4.091707
					CHANNELS 3 Xrotation Yrotation Zrotation
					End Site
					{
						OFFSET -15.471378 -7.177232 16.391544
					}
				}
			}
		}
	}
	JOINT RightUpLeg
	{
		OFFSET -9.139662 -2.380508 -3.349473
		CHANNELS 3 Xrotation Yrotation Zrotation
		JOINT RightLowLeg
		{
			OFFSET -22.875162 -34.984478 22.289602
			CHANNELS 3 Xrotation Yrotation Zrotation
			JOINT RightFoot
			{
				OFFSET 40.907753 4.022587 -17.633923
				CHANNELS 3 Xrotation Yrotation Zrotation
				JOINT RightToe
				{
					OFFSET 9.753836 -20.126350 7.703901
					CHANNELS 3 Xrotation Yrotation Zrotation
					End Site
					{
						OFFSET -6.122523 -21.589272 7.481592
					}
				}
			}
		}
	}
}
MOTION
Frames: 18
Frame Time: 0.033333
-0.773549 98.140244 -4.450824 0.804072 0.006122 0.141610 0.184705 0.042407 0.296881 -0.000006 0.061248 -0.045895 -0.265818 -0.187217 -0.225392 -1.067538 1.067945 -0.157618 -0.000000 0.000000 -0.000003 -0.360177 0.300870 -0.193894 -0.387261 -0.035441 -0.200315 0.315195 -0.588636 0.887472 0.000000 0.000000 0.000000 -0.294655 0.079851 0.468240 -0.296943 0.407002 -0.393526 0.899784 0.510101 -0.488604 0.000001 -0.000001 0.000009 -1.149859 -0.339529 -0.441515 0.840913 -0.278212 0.777078 0.943909 0.780129 -0.141704 0.000002 -0.000003 -0.000002 -0.313128 -0.054945 -0.674182 -1.935969 -1.441288 1.161173 2.130976 -1.283515 -0.293911 0.000003 -0.000000 0.000002 
-0.787093 98.081352 -4.496768 0.647076 -0.064285 0.101101 0.456901 0.086480 0.406261 0.178476 0.062109 -0.025773 -0.629725 -0.087197 -0.237929 -1.144315 1.112046 -0.217691 -0.000001 -0.000000 -0.000003 -0.289788 0.249372 -0.137429 -0.411923 0.023094 -0.399449 0.372992 -0.610332 1.196434 -0.000000 0.000000 0.000001 -0.674601 -0.260508 0.416530 0.025688 0.429768 -0.293419 1.119013 0.270930 -0.544825 0.000002 -0.000001 0.000006 -1.370965 -0.280400 -0.335380 0.896046 -0.272913 0.657532 0.895270 0.426424 -0.106522 0.000002 0.000000 -0.000001 -0.378944 -0.086632 -0.655274 -1.837189 -1.415253 1.152280 2.082536 -1.153156 -0.577313 0.000004 0.000000 -0.000000 
-0.801328 98.029510 -4.530551 0.770090 -0.265404 0.194543 0.215412 0.025309 0.317878 -0.094833 0.090222 -0.146842 -0.407663 -0.258864 -0.160716 -0.810526 1.261704 -0.378628 0.000000 0.000000 -0.000004 -0.329754 0.456990 -0.199877 -0.026262 -0.355848 -0.342397 0.054700 -0.546043 1.361330 0.000001 0.000000 -0.000001 -0.505808 -0.141346 0.571851 -0.251811 0.308565 -0.419705 1.192485 0.227931 -0.755972 -0.000001 -0.000001 0.000004 -1.211319 -0.217538 -0.212401 1.140542 -0.324802 0.332424 1.210168 0.465839 -0.168086 -0.000001 0.000003 0.000001 -0.843651 -0.002419 -0.641563 -1.410591 -1.023860 1.012016 1.728916 -1.205303 -0.240032 0.000001 -0.000001 0.000000 
-0.802907 97.966911 -4.567425 0.258001 -0.268785 0.208542 0.708403 0.104300 0.416542 -0.226437 0.087719 -0.158604 -0.324885 0.189012 -0.163710 -0.519094 0.968435 -0.109460 -0.000000 -0.000001 -0.000000 0.050632 0.004197 -0.338327 -0.302602 0.121870 -0.228180 0.221265 -0.465018 1.381686 0.000001 -0.000001 0.000000 -0.551743 -0.274686 0.454979 -0.062466 0.208148 -0.208496 1.321331 0.289761 -0.828145 0.000001 -0.000000 0.000008 -1.483673 -0.315653 -0.098419 2.028287 -0.444697 0.039781 1.228545 0.536084 -0.117118 -0.000000 -0.000001 -0.000000 -0.485601 -0.000578 -0.569622 -1.481634 -1.081750 1.144955 1.787569 -1.440469 -0.102298 0.000001 -0.000002 0.000000 
-0.809016 97.914879 -4.603467 0.707551 -0.084230 0.264819 0.521924 0.058812 0.355647 -0.739750 -0.021955 -0.127678 0.189807 0.196614 -0.181068 -0.565338 0.812213 -0.025632 0.000000 0.000000 -0.000002 -0.016430 0.259706 -0.275630 -0.034555 0.042142 -0.255764 -0.321064 -0.278473 1.207160 0.000001 -0.000001 0.000001 -0.420501 -0.194707 0.478451 -0.144478 0.050001 -0.156028 0.862194 0.429325 -0.812918 -0.000000 -0.000000 0.000002 -1.753631 -0.416411 -0.302056 1.893061 -0.333823 0.301211 0.859848 0.713322 -0.072494 0.000003 -0.000002 -0.000003 -0.292192 -0.051395 -0.629393 -1.043070 -0.760121 0.909074 1.537046 -1.522114 0.310826 0.000002 -0.000001 -0.000001 
-0.813083 97.866341 -4.644765 1.185845 -0.078081 0.234794 -0.135246 -0.119097 0.345284 0.233561 0.090832 -0.006238 -0.380895 -0.036970 -0.212953 -1.153855 1.076818 -0.128558 -0.000002 0.000001 -0.000003 -0.068651 0.747305 -0.362288 0.209053 0.031149 0.054234 -0.859453 0.044505 0.908566 -0.000000 0.000000 0.000000 -0.387723 -0.279137 0.707710 -0.342276 -0.234674 -0.493128 0.221443 0.646491 -0.899929 0.000001 -0.000001 0.000004 -1.595482 -0.440039 -0.333880 1.320915 -0.230429 0.374242 0.721308 0.571838 -0.035104 0.000002 -0.000003 -0.000003 -0.523205 0.017646 -0.625406 -1.518854 -1.254316 1.028146 1.718415 -1.605147 0.219561 0.000002 -0.000001 0.000001 
-0.815447 97.821312 -4.689125 0.942658 0.033335 0.261280 0.223627 -0.044801 0.373528 0.486571 0.049412 0.128395 -0.666665 -0.287931 -0.300137 -1.096821 1.242911 -0.295489 -0.000001 -0.000000 -0.000002 0.003668 0.811604 -0.488605 -0.102112 0.567347 0.189865 -0.613274 0.133025 0.806263 0.000000 -0.000001 -0.000000 -0.107492 -0.128341 0.714397 -0.593000 -0.444345 -0.536314 -0.038972 0.802391 -0.837303 0.000001 0.000000 0.000003 -1.453903 -0.457054 -0.200154 1.240094 -0.267652 0.045412 0.761829 0.229875 -0.065398 -0.000001 -0.000002 -0.000000 -0.224730 0.005926 -0.592157 -1.619615 -1.345942 0.915337 1.677923 -1.242835 -0.076940 -0.000000 0.000000 0.000001 
-0.811369 97.772728 -4.739597 0.958257 0.289349 0.316342 -0.022300 -0.118598 0.389630 1.089452 0.140331 0.144594 -1.124529 -0.407358 -0.282299 -0.714808 0.908173 -0.153747 -0.000001 0.000000 -0.000002 0.035264 0.752687 -0.430828 -0.349389 0.907626 0.008104 -0.867310 0.121894 1.072647 0.000000 -0.000001 -0.000001 -0.558327 -0.460352 0.722278 -0.621430 -0.468968 -0.555505 0.252797 0.781827 -0.822407 -0.000000 -0.000001 0.000004 -1.396149 -0.491528 -0.231729 1.095650 -0.172266 -0.067888 0.798284 0.530628 -0.074588 -0.000003 0.000000 0.000001 -0.410826 0.033194 -0.675742 -1.795712 -1.534311 1.006005 1.920862 -1.029688 -0.554982 0.000004 -0.000000 0.000002 
-0.803957 97.725990 -4.786544 1.262901 0.298451 0.292596 -0.164063 -0.142562 0.374033 0.573745 0.057194 0.150330 -0.528571 -0.233369 -0.169220 -1.121877 0.951204 -0.125940 -0.000000 -0.000001 -0.000000 0.119819 0.596811 -0.479172 -0.565227 1.202943 0.033716 -0.810157 0.161958 1.183748 0.000001 -0.000001 0.000000 -0.586178 -0.523942 0.728686 -0.812068 -0.577426 -0.528887 0.327420 0.683031 -0.969996 0.000000 0.000000 0.000004 -0.878284 -0.429080 -0.418938 0.735289 -0.100974 0.257639 0.868865 1.016598 -0.101443 -0.000001 -0.000003 0.000002 -0.595484 0.056303 -0.703610 -1.446036 -1.246105 0.814189 1.805959 -0.992729 -0.696417 -0.000000 -0.000002 0.000003 
-0.798237 97.681992 -4.821672 1.197898 0.306521 0.343714 0.089274 -0.052154 0.325524 0.567565 0.083431 0.113408 -0.597588 0.176523 -0.017558 -1.399730 0.938760 -0.014625 -0.000001 -0.000001 0.000002 -0.070295 0.472688 -0.411272 -0.306621 0.582134 -0.109765 -1.481727 -0.055723 1.238037 0.000001 0.000000 -0.000002 -0.889940 -0.569440 0.845554 -0.313450 -0.105220 -0.603960 0.228422 0.868069 -0.819351 -0.000000 0.000001 0.000001 -1.243222 -0.489294 -0.388739 0.984918 -0.204178 0.077744 0.963557 0.965108 -0.133720 -0.000001 0.000002 0.000001 -0.944305 0.148903 -0.578339 -1.550285 -1.222685 0.837560 2.088021 -1.071568 -0.796013 0.000000 0.000000 0.000000 
-0.789036 97.639877 -4.858994 1.382937 0.704425 0.288339 -0.290806 -0.177176 0.523603 1.001862 0.074755 0.257110 -0.905426 -0.326095 -0.200213 -1.221016 1.088912 -0.265418 -0.000001 -0.000001 -0.000000 -0.214585 0.516197 -0.435937 -0.208128 0.395789 -0.171382 -1.112179 -0.028204 1.400134 0.000000 -0.000001 0.000001 -0.817310 -0.417535 0.887503 -0.095904 0.051319 -0.646091 0.239585 0.838229 -0.710443 -0.000002 0.000002 0.000003 -1.036842 -0.473433 -0.377461 0.941507 0.005376 0.055591 0.616840 0.871894 -0.082856 -0.000002 -0.000002 -0.000000 -1.142609 0.144264 -0.729616 -1.849955 -1.581021 1.002110 1.937987 -0.818506 -0.881749 0.000003 0.000000 -0.000000 
-0.770132 97.595886 -4.899377 1.245962 0.534705 0.321566 0.049278 -0.117232 0.632826 1.438769 0.132507 0.283920 -1.317125 -0.372535 -0.216640 -1.607115 1.245478 -0.269106 0.000000 -0.000000 -0.000003 -0.141756 0.471695 -0.657200 -0.302972 0.499476 -0.005428 -1.551844 0.031068 1.388128 0.000001 -0.000001 0.000001 -0.609876 -0.313887 0.918403 -0.765053 -0.173571 -0.822135 0.343552 0.684327 -0.817806 -0.000000 0.000002 0.000001 -1.159820 -0.493677 -0.506635 0.863815 0.082122 0.130838 0.708695 0.461845 -0.041935 -0.000002 -0.000001 -0.000000 -1.496127 0.188750 -0.671358 -1.585695 -1.426240 0.744967 2.590628 -1.000515 -1.315136 -0.000000 0.000000 0.000000 
-0.758535 97.558136 -4.933229 1.475179 0.561913 0.373591 -0.143106 -0.128462 0.460690 1.217398 0.055975 0.269703 -1.294843 -0.249167 -0.135413 -1.206270 0.970188 -0.146530 -0.000001 0.000000 0.000002 -0.395201 0.876661 -0.604311 -0.409756 0.391348 0.033524 -1.239887 -0.086293 1.484522 0.000000 -0.000001 -0.000000 -0.758956 -0.316542 1.083318 -0.623060 -0.000484 -0.766851 0.495342 0.655726 -0.859652 -0.000002 0.000001 0.000003 -0.896559 -0.381935 -0.389899 0.315857 0.123521 -0.158294 0.408124 0.752557 -0.034077 -0.000002 -0.000003 -0.000000 -1.848600 0.225991 -0.640332 -0.809978 -0.799391 0.229456 1.442595 -0.434650 -0.928277 0.000002 -0.000000 0.000002 
-0.744896 97.519875 -4.977126 1.606412 0.476778 0.391255 0.250509 -0.052092 0.539103 0.662670 -0.042829 0.272172 -0.908285 -0.479994 -0.206914 -1.996773 1.391600 -0.216921 0.000000 -0.000000 -0.000002 -0.341054 0.653221 -0.855791 -0.832082 0.577426 0.252800 -0.633324 -0.424736 1.453255 0.000000 -0.000001 0.000000 -1.207504 -0.568545 1.215961 -0.625971 0.155453 -0.873920 0.774101 0.805561 -0.816217 -0.000002 0.000000 0.000002 -1.404424 -0.512166 -0.277404 0.369674 0.022367 -0.437736 0.698544 0.579274 -0.078166 0.000003 -0.000003 -0.000003 -1.732743 0.262563 -0.681444 -0.512402 -0.498158 -0.082560 0.807831 -0.165645 -0.398930 0.000001 -0.000002 0.000003 
-0.733961 97.491402 -5.023198 2.025616 0.606442 0.490309 -0.099187 -0.108820 0.421892 1.024683 -0.004777 0.277011 -1.297846 -0.647033 -0.249940 -2.014305 1.283173 -0.254868 -0.000000 -0.000001 -0.000002 -0.494007 0.689604 -0.890201 -0.906583 0.358142 0.297046 0.130676 -0.707018 1.630174 -0.000000 -0.000001 -0.000001 -1.224055 -0.457381 1.227534 -0.536612 0.385888 -0.650247 1.204807 0.679181 -0.953453 -0.000003 0.000001 0.000002 -1.292307 -0.496045 -0.416312 -0.168063 0.094128 -0.426538 0.324826 0.519467 -0.010195 0.000005 0.000003 0.000001 -1.628033 0.169458 -0.871219 -0.684319 -0.648399 -0.062078 0.804126 -0.194863 -0.547807 -0.000000 -0.000001 0.000001 
-0.717951 97.450348 -5.064441 1.595930 0.788954 0.447760 0.028269 -0.092717 0.551782 1.188337 -0.041005 0.359190 -1.339488 -0.632117 -0.375565 -1.834151 1.193628 -0.279189 0.000000 -0.000000 -0.000000 -0.309959 0.135815 -0.872951 -1.161256 0.458247 0.186817 0.511556 -0.913378 1.760878 -0.000000 0.000000 0.000001 -0.877367 -0.094289 1.323584 -0.438592 0.501925 -0.646266 1.584854 0.497666 -1.082199 -0.000003 0.000002 0.000001 -1.451192 -0.515172 -0.461044 0.559680 0.025425 -0.289232 0.419175 0.878364 0.042692 -0.000002 -0.000003 -0.000003 -1.294571 0.103969 -0.831886 -1.284998 -1.219358 0.279122 1.108557 -0.574536 -0.501959 -0.000000 -0.000001 0.000000 
-0.702129 97.418793 -5.107419 2.038610 0.722537 0.535700 -0.758460 -0.280353 0.439659 1.494010 0.046641 0.305375 -1.516015 -0.535315 -0.320158 -1.859226 1.300830 -0.339678 -0.000001 -0.000001 0.000002 -0.596359 0.647441 -0.670491 -0.679798 0.045433 -0.001622 0.222089 -0.809394 1.858027 0.000000 0.000000 0.000000 -0.938381 -0.142613 1.259687 -0.755409 0.379610 -0.518756 1.637228 0.504726 -1.191827 -0.000001 0.000001 0.000001 -1.206174 -0.545174 -0.585039 0.013250 0.145880 -0.283797 0.487771 0.676747 0.061823 0.000001 -0.000006 0.000001 -1.459085 0.169227 -0.904788 -1.691636 -1.603624 0.307606 1.025484 -0.684655 -0.194677 0.000002 -0.000001 -0.000001 
-0.693324 97.384247 -5.144703 1.869581 0.904404 0.510713 -0.695857 -0.263524 0.457721 1.062976 -0.026775 0.308447 -0.946626 -0.635309 -0.322803 -2.278653 1.606834 -0.417803 -0.000001 -0.000000 -0.000002 -0.720229 0.680869 -0.560606 -0.250612 -0.484408 -0.263427 -0.748542 -0.807335 1.941758 -0.000000 0.000000 -0.000001 -0.861966 -0.005354 1.289842 -0.878497 0.438062 -0.500566 1.399025 0.718451 -1.298226 -0.000000 0.000001 0.000006 -1.708748 -0.593766 -0.239154 0.406386 0.110422 -0.887863 0.754370 0.374767 0.030011 0.000003 -0.000002 -0.000000 -1.252297 0.161206 -0.855537 -1.382504 -1.322790 0.146750 0.478791 -0.407080 0.180094 0.000002 0.000000 0.000001 
